<svg width="360" height="640" viewBox="0 0 360 640" fill="none" xmlns="http://www.w3.org/2000/svg">
<g clip-path="url(#clip0_87_1010)">
<path d="M363.726 82.9632L349.267 77.3089L334.808 82.9632L320.35 77.3089L313.751 79.892L312.5 76.7089L320.35 73.6377L334.808 79.292L349.267 73.6377L363.726 79.292L378.185 73.6377L386.034 76.7089L384.784 79.892L378.185 77.3089L363.726 82.9632Z" fill="#A6AFBB"/>
<path d="M363.726 92.2988L349.267 86.6343L334.808 92.2988L320.35 86.6343L313.751 89.2276L312.5 86.0445L320.35 82.9631L334.808 88.6276L349.267 82.9631L363.726 88.6276L378.185 82.9631L386.034 86.0445L384.784 89.2276L378.185 86.6343L363.726 92.2988Z" fill="#A6AFBB"/>
<path d="M350.213 121.607C350.157 120.434 349.758 119.303 349.066 118.354C348.373 117.405 347.417 116.681 346.317 116.27C345.216 115.86 344.019 115.782 342.875 116.045C341.73 116.309 340.688 116.902 339.878 117.753C339.068 118.603 338.525 119.673 338.316 120.829C338.108 121.985 338.244 123.177 338.707 124.256C339.17 125.336 339.939 126.256 340.92 126.902C341.9 127.549 343.049 127.893 344.224 127.892C345.031 127.878 345.828 127.703 346.567 127.379C347.306 127.054 347.974 126.586 348.531 126.001C349.088 125.417 349.524 124.727 349.812 123.973C350.101 123.219 350.237 122.415 350.213 121.607Z" stroke="#001E3F" stroke-linecap="round" stroke-linejoin="round"/>
<path d="M82.482 17.3594C82.5295 16.5435 82.4099 15.7264 82.1304 14.9583C81.851 14.1903 81.4175 13.4874 80.8567 12.8929C80.296 12.2983 79.6196 11.8247 78.8693 11.5009C78.1189 11.1772 77.3103 11.0102 76.4931 11.0102C75.6759 11.0102 74.8673 11.1772 74.1169 11.5009C73.3665 11.8247 72.6902 12.2983 72.1294 12.8929C71.5686 13.4874 71.1352 14.1903 70.8557 14.9583C70.5763 15.7264 70.4566 16.5435 70.5042 17.3594C70.4566 18.1754 70.5763 18.9924 70.8557 19.7605C71.1352 20.5286 71.5686 21.2314 72.1294 21.826C72.6902 22.4205 73.3665 22.8942 74.1169 23.2179C74.8673 23.5416 75.6759 23.7086 76.4931 23.7086C77.3103 23.7086 78.1189 23.5416 78.8693 23.2179C79.6196 22.8942 80.296 22.4205 80.8567 21.826C81.4175 21.2314 81.851 20.5286 82.1304 19.7605C82.4099 18.9924 82.5295 18.1754 82.482 17.3594V17.3594Z" stroke="#001E3F" stroke-linecap="round" stroke-linejoin="round"/>
<path d="M126.631 144.143C126.573 142.97 126.173 141.84 125.479 140.893C124.785 139.945 123.829 139.223 122.728 138.814C121.628 138.405 120.431 138.328 119.287 138.592C118.144 138.857 117.102 139.451 116.293 140.302C115.484 141.153 114.942 142.222 114.734 143.378C114.527 144.534 114.663 145.725 115.126 146.804C115.589 147.883 116.359 148.803 117.339 149.449C118.32 150.095 119.468 150.439 120.642 150.438C121.45 150.424 122.248 150.249 122.988 149.923C123.728 149.598 124.396 149.129 124.953 148.543C125.51 147.958 125.945 147.267 126.234 146.512C126.522 145.756 126.657 144.951 126.631 144.143V144.143Z" stroke="#001E3F" stroke-linecap="round" stroke-linejoin="round"/>
<path d="M331.138 246.418C331.092 245.458 330.765 244.532 330.198 243.755C329.631 242.978 328.848 242.385 327.947 242.049C327.046 241.714 326.067 241.65 325.13 241.866C324.193 242.082 323.34 242.568 322.676 243.264C322.013 243.961 321.569 244.836 321.399 245.783C321.229 246.729 321.34 247.705 321.719 248.589C322.098 249.473 322.728 250.226 323.532 250.755C324.335 251.283 325.275 251.565 326.237 251.564C326.897 251.548 327.547 251.402 328.15 251.135C328.753 250.868 329.298 250.485 329.753 250.007C330.208 249.529 330.565 248.966 330.803 248.35C331.04 247.735 331.154 247.078 331.138 246.418Z" fill="#FF804B"/>
<path d="M48.8567 539.362C51.5634 539.362 53.7577 537.058 53.7577 534.216C53.7577 531.374 51.5634 529.071 48.8567 529.071C46.15 529.071 43.9558 531.374 43.9558 534.216C43.9558 537.058 46.15 539.362 48.8567 539.362Z" fill="#FF804B"/>
<path d="M129.63 185.025C131.287 185.025 132.63 183.618 132.63 181.882C132.63 180.147 131.287 178.74 129.63 178.74C127.974 178.74 126.631 180.147 126.631 181.882C126.631 183.618 127.974 185.025 129.63 185.025Z" fill="#FF804B"/>
<path d="M46.9451 25.668C48.6017 25.668 49.9447 24.2611 49.9447 22.5256C49.9447 20.7901 48.6017 19.3832 46.9451 19.3832C45.2885 19.3832 43.9456 20.7901 43.9456 22.5256C43.9456 24.2611 45.2885 25.668 46.9451 25.668Z" fill="#FF804B"/>
<path d="M212.387 116.136C214.044 116.136 215.387 114.729 215.387 112.994C215.387 111.258 214.044 109.851 212.387 109.851C210.73 109.851 209.387 111.258 209.387 112.994C209.387 114.729 210.73 116.136 212.387 116.136Z" fill="#FF804B"/>
<path d="M104.506 561.959C104.412 560.038 103.757 558.187 102.622 556.635C101.486 555.084 99.9202 553.899 98.1181 553.229C96.316 552.559 94.3568 552.432 92.4835 552.865C90.6102 553.298 88.9052 554.272 87.5798 555.665C86.2543 557.058 85.3668 558.809 85.0273 560.702C84.6877 562.595 84.911 564.545 85.6695 566.312C86.428 568.079 87.6884 569.585 89.2943 570.642C90.9002 571.7 92.7811 572.262 94.7038 572.261C97.3693 572.194 99.8992 571.071 101.737 569.14C103.575 567.208 104.571 564.625 104.506 561.959V561.959Z" stroke="#001E3F" stroke-linecap="round" stroke-linejoin="round"/>
<path d="M83.5191 528.562H75.8322L71.9887 535.223L75.8322 541.884H83.5191L87.3626 535.223L83.5191 528.562ZM81.333 538.111H78.0183L76.3609 535.223L78.0183 532.345H81.3432L83.0107 535.223L81.333 538.111Z" fill="#001E3F"/>
<path d="M347.762 461.209H340.065L336.222 467.87L340.065 474.531H347.762L351.606 467.87L347.762 461.209ZM345.576 470.748H342.251L340.594 467.87L342.251 464.992H345.576L347.244 467.87L345.576 470.748Z" fill="#A6AFBB"/>
<path d="M31 447.323C23.4153 447.322 16.0013 445.072 9.69554 440.857C3.38975 436.642 -1.52466 430.652 -4.42627 423.644C-7.32787 416.637 -8.08637 408.926 -6.60585 401.487C-5.12533 394.048 -1.47229 387.215 3.89137 381.853C9.25504 376.49 16.0884 372.838 23.5275 371.359C30.9665 369.88 38.6772 370.64 45.6844 373.543C52.6916 376.445 58.6807 381.361 62.8944 387.667C67.1081 393.974 69.3571 401.388 69.3571 408.973C69.3464 419.141 65.3024 428.889 58.1127 436.079C50.9229 443.269 41.1746 447.313 31.0068 447.323H31ZM31.0068 448C38.7188 447.999 46.2573 445.711 52.6693 441.426C59.0814 437.141 64.0791 431.051 67.0306 423.926C69.9822 416.801 70.7552 408.961 69.2518 401.397C67.7484 393.833 64.0361 386.885 58.5843 381.43C53.1325 375.975 46.1859 372.26 38.6226 370.752C31.0593 369.245 23.2189 370.014 16.0925 372.962C8.96614 375.909 2.8737 380.904 -1.41463 387.314C-5.70296 393.724 -7.99465 401.261 -8 408.973C-8 414.094 -6.99123 419.166 -5.0313 423.898C-3.07137 428.629 -0.198648 432.929 3.42284 436.55C7.04432 440.172 11.3436 443.044 16.0753 445.004C20.807 446.964 25.8784 447.973 31 447.973L31.0068 448Z" fill="#A6AFBB"/>
<path d="M31 437.285C25.4055 437.286 19.9362 435.629 15.2839 432.521C10.6316 429.414 7.00519 424.997 4.86333 419.829C2.72147 414.661 2.16036 408.973 3.25097 403.486C4.34158 397.999 7.03491 392.958 10.9904 389.002C14.9458 385.046 19.9857 382.351 25.4726 381.259C30.9595 380.167 36.647 380.727 41.8158 382.868C46.9845 385.008 51.4024 388.633 54.5107 393.285C57.619 397.937 59.278 403.406 59.278 409C59.2762 416.5 56.2966 423.692 50.994 428.996C45.6914 434.3 38.4999 437.281 31 437.285ZM31 438C36.7356 438 42.3425 436.299 47.1115 433.113C51.8806 429.926 55.5976 425.397 57.7925 420.098C59.9874 414.799 60.5617 408.968 59.4428 403.342C58.3238 397.717 55.5618 392.55 51.5061 388.494C47.4504 384.438 42.2831 381.676 36.6576 380.557C31.0322 379.438 25.2012 380.013 19.9022 382.208C14.6031 384.402 10.0739 388.119 6.88738 392.888C3.70082 397.657 2 403.264 2 409C2.00901 416.689 5.06725 424.06 10.5039 429.496C15.9405 434.933 23.3115 437.991 31 438Z" fill="#A6AFBB"/>
<path d="M31 435.894C27.468 435.895 23.9704 435.2 20.707 433.849C17.4437 432.497 14.4785 430.517 11.981 428.019C9.48348 425.521 7.50251 422.556 6.15127 419.293C4.80004 416.03 4.10501 412.532 4.10591 409H-10C-10 419.874 -5.68037 430.302 2.00862 437.991C9.69761 445.68 20.1261 450 31 450C41.8739 450 52.3024 445.68 59.9914 437.991C67.6804 430.302 72 419.874 72 409H57.8941C57.895 412.532 57.2 416.03 55.8487 419.293C54.4975 422.556 52.5165 425.521 50.019 428.019C47.5215 430.517 44.5563 432.497 41.293 433.849C38.0296 435.2 34.532 435.895 31 435.894Z" fill="#DDE3E8"/>
<path d="M401.022 578.932C401.022 590.33 397.642 601.472 391.311 610.95C384.979 620.427 375.98 627.814 365.451 632.176C354.922 636.538 343.336 637.679 332.159 635.455C320.981 633.232 310.714 627.743 302.656 619.683C294.597 611.623 289.109 601.354 286.886 590.175C284.663 578.996 285.804 567.408 290.165 556.877C294.526 546.347 301.912 537.346 311.388 531.014C320.863 524.681 332.004 521.301 343.4 521.301C358.677 521.317 373.324 527.394 384.127 538.199C394.93 549.003 401.006 563.652 401.022 578.932ZM402.039 578.932C402.039 567.342 398.603 556.013 392.166 546.376C385.729 536.739 376.58 529.227 365.875 524.79C355.17 520.353 343.39 519.19 332.024 521.448C320.658 523.706 310.217 529.284 302.021 537.476C293.824 545.668 288.24 556.107 285.974 567.473C283.709 578.839 284.863 590.622 289.292 601.332C293.721 612.041 301.225 621.197 310.856 627.642C320.487 634.087 331.813 637.531 343.4 637.539C358.941 637.539 373.846 631.364 384.835 620.373C395.824 609.382 401.998 594.475 401.998 578.932H402.039Z" fill="#A6AFBB"/>
<path d="M385.628 578.932C385.63 587.285 383.155 595.452 378.516 602.399C373.877 609.345 367.283 614.76 359.567 617.958C351.851 621.156 343.36 621.994 335.168 620.366C326.976 618.737 319.451 614.716 313.545 608.81C307.638 602.904 303.615 595.378 301.985 587.185C300.355 578.992 301.191 570.5 304.386 562.782C307.582 555.064 312.995 548.468 319.939 543.826C326.883 539.185 335.048 536.708 343.4 536.708C354.597 536.711 365.335 541.16 373.253 549.077C381.171 556.995 385.622 567.733 385.628 578.932ZM386.695 578.932C386.695 570.368 384.156 561.996 379.399 554.875C374.641 547.754 367.88 542.203 359.969 538.926C352.057 535.649 343.352 534.791 334.954 536.462C326.555 538.133 318.841 542.257 312.786 548.313C306.731 554.369 302.608 562.084 300.937 570.484C299.267 578.884 300.124 587.59 303.401 595.503C306.678 603.415 312.227 610.178 319.347 614.936C326.467 619.694 334.837 622.234 343.4 622.234C354.879 622.22 365.883 617.654 374 609.536C382.116 601.418 386.682 590.412 386.695 578.932Z" fill="#A6AFBB"/>
<path d="M383.452 578.932C383.453 584.193 382.418 589.403 380.406 594.264C378.394 599.126 375.444 603.543 371.724 607.264C368.005 610.984 363.59 613.936 358.73 615.95C353.87 617.963 348.661 619 343.4 619V640C359.594 640 375.124 633.566 386.575 622.114C398.026 610.661 404.458 595.128 404.458 578.932C404.458 562.736 398.026 547.203 386.575 535.75C375.124 524.298 359.594 517.864 343.4 517.864V538.874C348.66 538.873 353.869 539.908 358.729 541.921C363.589 543.933 368.004 546.884 371.724 550.604C375.443 554.324 378.393 558.74 380.406 563.601C382.418 568.461 383.453 573.671 383.452 578.932Z" fill="#DDE3E8"/>
</g>
<defs>
<clipPath id="clip0_87_1010">
<rect width="410" height="640" fill="white"/>
</clipPath>
</defs>
</svg>
