<svg width="360" height="640" viewBox="0 0 360 640" fill="none" xmlns="http://www.w3.org/2000/svg">
<g clip-path="url(#clip0_87_1042)">
<path d="M321.226 49.3255L306.767 43.6712L292.308 49.3255L277.85 43.6712L271.251 46.2543L270 43.0712L277.85 40L292.308 45.6543L306.767 40L321.226 45.6543L335.685 40L343.534 43.0712L342.284 46.2543L335.685 43.6712L321.226 49.3255Z" fill="#A6AFBB"/>
<path d="M321.226 58.6611L306.767 52.9967L292.308 58.6611L277.85 52.9967L271.251 55.5899L270 52.4068L277.85 49.3255L292.308 54.9899L306.767 49.3255L321.226 54.9899L335.685 49.3255L343.534 52.4068L342.284 55.5899L335.685 52.9967L321.226 58.6611Z" fill="#A6AFBB"/>
<path d="M350.213 121.607C350.157 120.434 349.758 119.303 349.066 118.354C348.373 117.405 347.417 116.681 346.317 116.27C345.216 115.86 344.019 115.782 342.875 116.045C341.73 116.309 340.688 116.902 339.878 117.753C339.068 118.603 338.525 119.673 338.316 120.829C338.108 121.985 338.244 123.177 338.707 124.256C339.17 125.336 339.939 126.256 340.92 126.902C341.9 127.549 343.049 127.893 344.224 127.892C345.031 127.878 345.828 127.703 346.567 127.379C347.306 127.054 347.974 126.586 348.531 126.001C349.088 125.417 349.524 124.727 349.812 123.973C350.101 123.219 350.237 122.415 350.213 121.607Z" stroke="#001E3F" stroke-linecap="round" stroke-linejoin="round"/>
<path d="M82.482 17.3594C82.5295 16.5435 82.4099 15.7264 82.1304 14.9583C81.8509 14.1903 81.4175 13.4874 80.8567 12.8929C80.2959 12.2983 79.6196 11.8247 78.8692 11.5009C78.1189 11.1772 77.3103 11.0102 76.4931 11.0102C75.6759 11.0102 74.8673 11.1772 74.1169 11.5009C73.3665 11.8247 72.6902 12.2983 72.1294 12.8929C71.5686 13.4874 71.1352 14.1903 70.8557 14.9583C70.5762 15.7264 70.4566 16.5435 70.5042 17.3594C70.4566 18.1754 70.5762 18.9924 70.8557 19.7605C71.1352 20.5286 71.5686 21.2314 72.1294 21.826C72.6902 22.4205 73.3665 22.8942 74.1169 23.2179C74.8673 23.5416 75.6759 23.7086 76.4931 23.7086C77.3103 23.7086 78.1189 23.5416 78.8692 23.2179C79.6196 22.8942 80.2959 22.4205 80.8567 21.826C81.4175 21.2314 81.8509 20.5286 82.1304 19.7605C82.4099 18.9924 82.5295 18.1754 82.482 17.3594V17.3594Z" stroke="#001E3F" stroke-linecap="round" stroke-linejoin="round"/>
<path d="M331.138 246.418C331.092 245.458 330.765 244.532 330.198 243.755C329.631 242.978 328.848 242.385 327.947 242.05C327.046 241.714 326.067 241.65 325.13 241.866C324.193 242.082 323.34 242.568 322.676 243.264C322.013 243.961 321.569 244.836 321.399 245.783C321.229 246.729 321.34 247.705 321.719 248.589C322.098 249.473 322.728 250.226 323.532 250.755C324.335 251.283 325.275 251.565 326.237 251.564C326.897 251.548 327.547 251.403 328.15 251.135C328.753 250.868 329.298 250.485 329.753 250.007C330.208 249.529 330.565 248.966 330.803 248.35C331.04 247.735 331.154 247.078 331.138 246.418Z" fill="#FF804B"/>
<path d="M48.8567 539.362C51.5634 539.362 53.7577 537.058 53.7577 534.216C53.7577 531.374 51.5634 529.071 48.8567 529.071C46.15 529.071 43.9558 531.374 43.9558 534.216C43.9558 537.058 46.15 539.362 48.8567 539.362Z" fill="#FF804B"/>
<path d="M129.63 185.025C131.287 185.025 132.63 183.618 132.63 181.882C132.63 180.147 131.287 178.74 129.63 178.74C127.974 178.74 126.631 180.147 126.631 181.882C126.631 183.618 127.974 185.025 129.63 185.025Z" fill="#FF804B"/>
<path d="M46.9452 25.6679C48.6018 25.6679 49.9447 24.261 49.9447 22.5255C49.9447 20.79 48.6018 19.3831 46.9452 19.3831C45.2886 19.3831 43.9456 20.79 43.9456 22.5255C43.9456 24.261 45.2886 25.6679 46.9452 25.6679Z" fill="#FF804B"/>
<path d="M104.506 561.959C104.412 560.038 103.757 558.187 102.622 556.635C101.486 555.084 99.9202 553.899 98.1181 553.229C96.316 552.559 94.3568 552.432 92.4835 552.865C90.6102 553.298 88.9052 554.272 87.5798 555.665C86.2543 557.058 85.3668 558.809 85.0273 560.702C84.6877 562.595 84.911 564.545 85.6695 566.312C86.428 568.079 87.6884 569.585 89.2943 570.642C90.9002 571.7 92.7811 572.262 94.7038 572.261C97.3693 572.194 99.8992 571.071 101.737 569.14C103.575 567.208 104.571 564.625 104.506 561.959V561.959Z" stroke="#001E3F" stroke-linecap="round" stroke-linejoin="round"/>
<path d="M83.5191 528.562H75.8322L71.9887 535.223L75.8322 541.884H83.5191L87.3625 535.223L83.5191 528.562ZM81.333 538.111H78.0183L76.3609 535.223L78.0183 532.345H81.3432L83.0107 535.223L81.333 538.111Z" fill="#001E3F"/>
<path d="M347.762 461.209H340.065L336.222 467.87L340.065 474.531H347.762L351.606 467.87L347.762 461.209ZM345.576 470.748H342.251L340.594 467.87L342.251 464.992H345.576L347.244 467.87L345.576 470.748Z" fill="#A6AFBB"/>
<path d="M31 447.323C23.4153 447.322 16.0013 445.072 9.69554 440.857C3.38975 436.642 -1.52466 430.652 -4.42627 423.644C-7.32787 416.637 -8.08637 408.926 -6.60585 401.487C-5.12533 394.048 -1.47229 387.215 3.89137 381.853C9.25504 376.49 16.0884 372.838 23.5275 371.359C30.9665 369.88 38.6772 370.64 45.6844 373.543C52.6916 376.445 58.6807 381.361 62.8944 387.667C67.1081 393.974 69.3571 401.388 69.3571 408.973C69.3464 419.141 65.3024 428.889 58.1127 436.079C50.9229 443.269 41.1746 447.313 31.0068 447.323H31ZM31.0068 448C38.7188 447.999 46.2573 445.711 52.6693 441.426C59.0814 437.141 64.0791 431.051 67.0306 423.926C69.9822 416.801 70.7552 408.961 69.2518 401.397C67.7484 393.833 64.0361 386.885 58.5843 381.43C53.1325 375.975 46.1859 372.26 38.6226 370.752C31.0593 369.245 23.2189 370.014 16.0925 372.962C8.96614 375.909 2.8737 380.904 -1.41463 387.314C-5.70296 393.724 -7.99465 401.261 -8 408.973C-8 414.094 -6.99123 419.166 -5.0313 423.898C-3.07137 428.629 -0.198648 432.929 3.42284 436.55C7.04432 440.172 11.3436 443.044 16.0753 445.004C20.807 446.964 25.8784 447.973 31 447.973L31.0068 448Z" fill="#A6AFBB"/>
<path d="M31 437.285C25.4055 437.286 19.9362 435.629 15.2839 432.521C10.6316 429.414 7.00519 424.997 4.86333 419.829C2.72147 414.661 2.16036 408.973 3.25097 403.486C4.34158 397.999 7.03491 392.958 10.9904 389.002C14.9458 385.046 19.9857 382.351 25.4726 381.259C30.9595 380.167 36.647 380.727 41.8158 382.868C46.9845 385.008 51.4024 388.633 54.5107 393.285C57.619 397.937 59.278 403.406 59.278 409C59.2762 416.5 56.2966 423.692 50.994 428.996C45.6914 434.3 38.4999 437.281 31 437.285ZM31 438C36.7356 438 42.3425 436.299 47.1115 433.113C51.8806 429.926 55.5976 425.397 57.7925 420.098C59.9874 414.799 60.5617 408.968 59.4428 403.342C58.3238 397.717 55.5618 392.55 51.5061 388.494C47.4504 384.438 42.2831 381.676 36.6576 380.557C31.0322 379.438 25.2012 380.013 19.9022 382.208C14.6031 384.402 10.0739 388.119 6.88738 392.888C3.70082 397.657 2 403.264 2 409C2.00901 416.689 5.06725 424.06 10.5039 429.496C15.9405 434.933 23.3115 437.991 31 438Z" fill="#A6AFBB"/>
</g>
<defs>
<clipPath id="clip0_87_1042">
<rect width="410" height="640" fill="white"/>
</clipPath>
</defs>
</svg>
